# xmcd CD database file
#
# Track frame offsets:
#	150
#	21052
#	44457
#	65636
#	85763
#	107842
#	124724
#	158467
#	191923
#	200814
#
# Disc length: 3185 seconds
#
# Revision: 0
# Processed by: cddbd v1.5PL3 Copyright (c) Steve Scherf et al.
# Submitted via: CDex 1.51
#
DISCID=870c6f0a
DTITLE=Ariel Kalma - Flute for the Soul
DYEAR=1999
DGENRE=New Age
TTITLE0=Te Quiero Muchio
TTITLE1=Lost Paradise
TTITLE2=Free Birds, Empty Sky
TTITLE3=Fute for the Soul
TTITLE4=Dreaming on Red Square
TTITLE5=Minoa's dance
TTITLE6=Circles of Live
TTITLE7=Peaceful Ocean
TTITLE8=Echoes of the Mountens
TTITLE9=ender Loving You
EXTD=YEAR: 1999
EXTT0=
EXTT1=
EXTT2=
EXTT3=
EXTT4=
EXTT5=
EXTT6=
EXTT7=
EXTT8=
EXTT9=
PLAYORDER=
